{
    "accessors": [
        {
            "bufferView": 0,
            "byteOffset": 0,
            "componentType": 5126,
            "count": 88,
            "max": [
                1.0,
                1.0,
                1.0
            ],
            "min": [
                -1.0,
                -35.93073272705078,
                -1.0
            ],
            "name": "accessor_buffer_Cube.003_POSITION_0",
            "type": "VEC3"
        },
        {
            "bufferView": 1,
            "byteOffset": 0,
            "componentType": 5126,
            "count": 88,
            "max": [
                1.0,
                1.0,
                1.0
            ],
            "min": [
                -1.0,
                -1.0,
                -1.0
            ],
            "name": "accessor_buffer_Cube.003_NORMAL_0",
            "type": "VEC3"
        },
        {
            "bufferView": 3,
            "byteOffset": 0,
            "componentType": 5123,
            "count": 54,
            "max": [
                84
            ],
            "min": [
                1
            ],
            "name": "accessor_buffer_Cube.003_1",
            "type": "SCALAR"
        },
        {
            "bufferView": 4,
            "byteOffset": 0,
            "componentType": 5123,
            "count": 60,
            "max": [
                87
            ],
            "min": [
                2
            ],
            "name": "accessor_buffer_Cube.003_2",
            "type": "SCALAR"
        },
        {
            "bufferView": 2,
            "byteOffset": 0,
            "componentType": 5123,
            "count": 42,
            "max": [
                85
            ],
            "min": [
                0
            ],
            "name": "accessor_buffer_Cube.003_0",
            "type": "SCALAR"
        }
    ],
    "asset": {
        "copyright": "",
        "generator": "blendergltf v1.2.0",
        "version": "2.0"
    },
    "bufferViews": [
        {
            "buffer": 0,
            "byteLength": 1056,
            "byteOffset": 0,
            "byteStride": 12,
            "name": "bufferView_buffer_Cube.003_POSITION_0",
            "target": 34962
        },
        {
            "buffer": 0,
            "byteLength": 1056,
            "byteOffset": 1056,
            "byteStride": 12,
            "name": "bufferView_buffer_Cube.003_NORMAL_0",
            "target": 34962
        },
        {
            "buffer": 0,
            "byteLength": 88,
            "byteOffset": 2112,
            "name": "bufferView_buffer_Cube.003_0",
            "target": 34963
        },
        {
            "buffer": 0,
            "byteLength": 112,
            "byteOffset": 2200,
            "name": "bufferView_buffer_Cube.003_1",
            "target": 34963
        },
        {
            "buffer": 0,
            "byteLength": 124,
            "byteOffset": 2312,
            "name": "bufferView_buffer_Cube.003_2",
            "target": 34963
        }
    ],
    "buffers": [
        {
            "byteLength": 2436,
            "name": "buffer_test",
            "uri": "buffer_test.bin"
        }
    ],
    "materials": [
        {
            "alphaMode": "OPAQUE",
            "doubleSided": false,
            "emissiveFactor": [
                0.0,
                0.0,
                0.0
            ],
            "name": "Material.003",
            "pbrMetallicRoughness": {
                "baseColorFactor": [
                    0.04091519117355347,
                    0.04091519117355347,
                    0.04091519117355347,
                    1.0
                ],
                "metallicFactor": 0.5,
                "roughnessFactor": 9.999999747378752e-06
            }
        },
        {
            "alphaMode": "OPAQUE",
            "doubleSided": false,
            "emissiveFactor": [
                0.0,
                0.0,
                0.0
            ],
            "name": "Material.004",
            "pbrMetallicRoughness": {
                "baseColorFactor": [
                    0.006995410658419132,
                    0.006995410658419132,
                    0.006995410658419132,
                    1.0
                ],
                "metallicFactor": 0.5,
                "roughnessFactor": 9.999999747378752e-06
            }
        },
        {
            "alphaMode": "OPAQUE",
            "doubleSided": false,
            "emissiveFactor": [
                1.0,
                1.0,
                1.0
            ],
            "name": "Material.005",
            "pbrMetallicRoughness": {
                "baseColorFactor": [
                    0.799102783203125,
                    0.0,
                    0.005605391692370176,
                    1.0
                ],
                "metallicFactor": 0.0,
                "roughnessFactor": 1.0
            }
        }
    ],
    "meshes": [
        {
            "name": "Cube.003",
            "primitives": [
                {
                    "attributes": {
                        "NORMAL": 1,
                        "POSITION": 0
                    },
                    "indices": 4,
                    "material": 1,
                    "mode": 4
                },
                {
                    "attributes": {
                        "NORMAL": 1,
                        "POSITION": 0
                    },
                    "indices": 2,
                    "material": 2,
                    "mode": 4
                },
                {
                    "attributes": {
                        "NORMAL": 1,
                        "POSITION": 0
                    },
                    "indices": 3,
                    "material": 0,
                    "mode": 4
                }
            ]
        }
    ],
    "nodes": [
        {
            "mesh": 0,
            "name": "Cube.000",
            "rotation": [
                0.0,
                0.0,
                0.0,
                1.0
            ],
            "scale": [
                0.3388805389404297,
                0.013776944018900394,
                0.0960569977760315
            ],
            "translation": [
                0.021432161331176758,
                0.2894291579723358,
                0.0
            ]
        }
    ],
    "scene": 0,
    "scenes": [
        {
            "extras": {
                "background_color": [
                    0.05087608844041824,
                    0.05087608844041824,
                    0.05087608844041824
                ],
                "frames_per_second": 24
            },
            "name": "Scene",
            "nodes": [
                0
            ]
        }
    ]
}
