# MagicaVoxel @ Ephtracy

# material
mtllib spaceship.mtl
usemtl palette

# normals
vn -1 0 0
vn 1 0 0
vn 0 0 1
vn 0 0 -1
vn 0 -1 0
vn 0 1 0

# texcoords
vt 0.423828 0.5
vt 0.775391 0.5
vt 0.962891 0.5
vt 0.978516 0.5
vt 0.986328 0.5

# verts
v -6 6 -10
v -6 6 -12
v -6 7 -10
v -6 7 -11
v -6 7 -12
v -6 9 -10
v -6 9 -11
v -6 9 -12
v -6 10 -11
v -6 10 -12
v -5 6 -9
v -5 6 -10
v -5 7 -9
v -5 7 -10
v -5 8 -9
v -5 8 -10
v -4 6 -7
v -4 6 -9
v -4 6 -10
v -4 6 -11
v -4 7 4
v -4 7 -4
v -4 7 -7
v -4 7 -9
v -4 7 -10
v -4 7 -11
v -4 8 4
v -4 8 -4
v -4 8 -7
v -4 8 -9
v -3 4 -10
v -3 4 -12
v -3 4 -13
v -3 5 -10
v -3 5 -12
v -3 5 -13
v -3 6 9
v -3 6 8
v -3 6 7
v -3 6 5
v -3 6 -7
v -3 7 9
v -3 7 8
v -3 7 7
v -3 7 5
v -3 7 4
v -3 7 -4
v -3 7 -5
v -3 7 -7
v -3 8 9
v -3 8 8
v -3 8 5
v -3 8 4
v -3 8 -4
v -3 8 -5
v -3 8 -7
v -3 8 -9
v -3 8 -10
v -3 9 8
v -3 9 5
v -3 9 -5
v -3 9 -9
v -3 9 -10
v -2 4 -9
v -2 4 -10
v -2 5 5
v -2 5 -5
v -2 5 -9
v -2 5 -10
v -2 6 5
v -2 6 -5
v -2 7 -7
v -2 7 -8
v -2 8 -7
v -2 8 -8
v -2 8 -9
v -2 9 9
v -2 9 8
v -2 9 5
v -2 9 -7
v -2 9 -9
v -2 10 9
v -2 10 5
v -1 4 -5
v -1 4 -9
v -1 5 12
v -1 5 5
v -1 5 -5
v -1 5 -9
v -1 6 12
v -1 6 9
v -1 6 8
v -1 6 7
v -1 6 5
v -1 6 -5
v -1 6 -7
v -1 6 -8
v -1 6 -9
v -1 7 9
v -1 7 8
v -1 7 7
v -1 7 -7
v -1 7 -8
v 1 6 -10
v 1 6 -12
v 1 7 8
v 1 7 7
v 1 7 -9
v 1 7 -10
v 1 7 -11
v 1 7 -12
v 1 8 8
v 1 8 7
v 1 8 -8
v 1 8 -9
v 1 8 -11
v 1 9 -8
v 1 9 -11
v 1 9 -12
v 1 10 -11
v 1 10 -12
v 2 6 9
v 2 6 8
v 2 7 9
v 2 7 8
v 3 6 -7
v 3 6 -9
v 3 7 -7
v 3 7 -9
v 3 8 -7
v 3 8 -9
v 5 6 -10
v 5 6 -11
v 5 7 -10
v 5 7 -11
v -5 6 -10
v -5 6 -11
v -5 7 -10
v -5 7 -11
v -3 6 -7
v -3 6 -9
v -3 7 -7
v -3 7 -9
v -3 8 -7
v -3 8 -9
v -2 6 9
v -2 6 8
v -2 7 9
v -2 7 8
v -1 6 -10
v -1 6 -12
v -1 7 8
v -1 7 7
v -1 7 -9
v -1 7 -10
v -1 7 -11
v -1 7 -12
v -1 8 8
v -1 8 7
v -1 8 -8
v -1 8 -9
v -1 8 -11
v -1 9 -8
v -1 9 -11
v -1 9 -12
v -1 10 -11
v -1 10 -12
v 1 4 -5
v 1 4 -9
v 1 5 12
v 1 5 5
v 1 5 -5
v 1 5 -9
v 1 6 12
v 1 6 9
v 1 6 8
v 1 6 7
v 1 6 5
v 1 6 -5
v 1 6 -7
v 1 6 -8
v 1 6 -9
v 1 7 9
v 1 7 8
v 1 7 7
v 1 7 -7
v 1 7 -8
v 2 4 -9
v 2 4 -10
v 2 5 5
v 2 5 -5
v 2 5 -9
v 2 5 -10
v 2 6 5
v 2 6 -5
v 2 7 -7
v 2 7 -8
v 2 8 -7
v 2 8 -8
v 2 8 -9
v 2 9 9
v 2 9 8
v 2 9 5
v 2 9 -7
v 2 9 -9
v 2 10 9
v 2 10 5
v 3 4 -10
v 3 4 -12
v 3 4 -13
v 3 5 -10
v 3 5 -12
v 3 5 -13
v 3 6 9
v 3 6 8
v 3 6 7
v 3 6 5
v 3 6 -7
v 3 7 9
v 3 7 8
v 3 7 7
v 3 7 5
v 3 7 4
v 3 7 -4
v 3 7 -5
v 3 7 -7
v 3 8 9
v 3 8 8
v 3 8 5
v 3 8 4
v 3 8 -4
v 3 8 -5
v 3 8 -7
v 3 8 -9
v 3 8 -10
v 3 9 8
v 3 9 5
v 3 9 -5
v 3 9 -9
v 3 9 -10
v 4 6 -7
v 4 6 -9
v 4 6 -10
v 4 6 -11
v 4 7 4
v 4 7 -4
v 4 7 -7
v 4 7 -9
v 4 7 -10
v 4 7 -11
v 4 8 4
v 4 8 -4
v 4 8 -7
v 4 8 -9
v 5 6 -9
v 5 6 -10
v 5 7 -9
v 5 7 -10
v 5 8 -9
v 5 8 -10
v 6 6 -10
v 6 6 -12
v 6 7 -10
v 6 7 -11
v 6 7 -12
v 6 9 -10
v 6 9 -11
v 6 9 -12
v 6 10 -11
v 6 10 -12
v -1 5 12
v -1 6 12
v 1 5 12
v 1 6 12
v -3 6 9
v -3 7 9
v -3 8 9
v -2 6 9
v -2 7 9
v -2 9 9
v -2 10 9
v -1 6 9
v -1 7 9
v 1 6 9
v 1 7 9
v 2 6 9
v 2 7 9
v 2 9 9
v 2 10 9
v 3 6 9
v 3 7 9
v 3 8 9
v -3 8 8
v -3 9 8
v -2 9 8
v 2 9 8
v 3 8 8
v 3 9 8
v -3 6 7
v -3 7 7
v -2 6 7
v -2 7 7
v -1 6 7
v -1 7 7
v -1 8 7
v 1 6 7
v 1 7 7
v 1 8 7
v 2 6 7
v 2 7 7
v 3 6 7
v 3 7 7
v -2 5 5
v -2 6 5
v -1 5 5
v -1 6 5
v 1 5 5
v 1 6 5
v 2 5 5
v 2 6 5
v -4 7 4
v -4 8 4
v -3 7 4
v -3 8 4
v 3 7 4
v 3 8 4
v 4 7 4
v 4 8 4
v -1 4 -5
v -1 5 -5
v 1 4 -5
v 1 5 -5
v -4 6 -7
v -4 7 -7
v -4 8 -7
v -3 6 -7
v -3 7 -7
v -3 8 -7
v -2 8 -7
v -2 9 -7
v 2 8 -7
v 2 9 -7
v 3 6 -7
v 3 7 -7
v 3 8 -7
v 4 6 -7
v 4 7 -7
v 4 8 -7
v -5 6 -9
v -5 7 -9
v -5 8 -9
v -4 6 -9
v -4 7 -9
v -4 8 -9
v -3 6 -9
v -3 7 -9
v -3 8 -9
v -3 9 -9
v -2 4 -9
v -2 5 -9
v -2 7 -9
v -2 8 -9
v -2 9 -9
v -1 4 -9
v -1 5 -9
v -1 6 -9
v -1 7 -9
v -1 8 -9
v 1 4 -9
v 1 5 -9
v 1 6 -9
v 1 7 -9
v 1 8 -9
v 2 4 -9
v 2 5 -9
v 2 7 -9
v 2 8 -9
v 2 9 -9
v 3 6 -9
v 3 7 -9
v 3 8 -9
v 3 9 -9
v 4 6 -9
v 4 7 -9
v 4 8 -9
v 5 6 -9
v 5 7 -9
v 5 8 -9
v -6 6 -10
v -6 7 -10
v -6 9 -10
v -5 6 -10
v -5 7 -10
v -5 8 -10
v -3 4 -10
v -3 5 -10
v -3 8 -10
v -3 9 -10
v -2 4 -10
v -2 5 -10
v 2 4 -10
v 2 5 -10
v 3 4 -10
v 3 5 -10
v 3 8 -10
v 3 9 -10
v 5 6 -10
v 5 7 -10
v 5 8 -10
v 6 6 -10
v 6 7 -10
v 6 9 -10
v -6 9 -11
v -6 10 -11
v -5 6 -11
v -5 7 -11
v -4 6 -11
v -4 7 -11
v -1 9 -11
v -1 10 -11
v 1 9 -11
v 1 10 -11
v 4 6 -11
v 4 7 -11
v 5 6 -11
v 5 7 -11
v 6 9 -11
v 6 10 -11
v -3 6 8
v -3 7 8
v -2 6 8
v -2 7 8
v -1 7 8
v -1 8 8
v 1 7 8
v 1 8 8
v 2 6 8
v 2 7 8
v 3 6 8
v 3 7 8
v -2 9 5
v -2 10 5
v -1 9 5
v -1 10 5
v 1 9 5
v 1 10 5
v 2 9 5
v 2 10 5
v -4 7 -4
v -4 8 -4
v -3 7 -4
v -3 8 -4
v 3 7 -4
v 3 8 -4
v 4 7 -4
v 4 8 -4
v -3 8 -5
v -3 9 -5
v -2 5 -5
v -2 6 -5
v -1 5 -5
v -1 6 -5
v 1 5 -5
v 1 6 -5
v 2 5 -5
v 2 6 -5
v 3 8 -5
v 3 9 -5
v -3 6 -7
v -3 7 -7
v -3 8 -7
v -2 7 -7
v -2 8 -7
v -1 6 -7
v -1 7 -7
v 1 6 -7
v 1 7 -7
v 2 7 -7
v 2 8 -7
v 3 6 -7
v 3 7 -7
v 3 8 -7
v -2 7 -8
v -2 8 -8
v -1 6 -8
v -1 7 -8
v -1 8 -8
v -1 9 -8
v 1 6 -8
v 1 7 -8
v 1 8 -8
v 1 9 -8
v 2 7 -8
v 2 8 -8
v -1 5 -9
v -1 6 -9
v 1 5 -9
v 1 6 -9
v -5 6 -10
v -5 7 -10
v -4 6 -10
v -4 7 -10
v -1 6 -10
v -1 7 -10
v 1 6 -10
v 1 7 -10
v 4 6 -10
v 4 7 -10
v 5 6 -10
v 5 7 -10
v -6 6 -12
v -6 7 -12
v -6 9 -12
v -6 10 -12
v -1 6 -12
v -1 7 -12
v -1 9 -12
v -1 10 -12
v 1 6 -12
v 1 7 -12
v 1 9 -12
v 1 10 -12
v 6 6 -12
v 6 7 -12
v 6 9 -12
v 6 10 -12
v -3 4 -13
v -3 5 -13
v 3 4 -13
v 3 5 -13
v -1 4 -5
v 1 4 -5
v -2 4 -9
v -1 4 -9
v 1 4 -9
v 2 4 -9
v -3 4 -10
v -2 4 -10
v 2 4 -10
v 3 4 -10
v -3 4 -12
v 3 4 -12
v -3 4 -13
v 3 4 -13
v -1 5 12
v 1 5 12
v -2 5 5
v -1 5 5
v 1 5 5
v 2 5 5
v -2 5 -5
v -1 5 -5
v 1 5 -5
v 2 5 -5
v -3 6 9
v -2 6 9
v 2 6 9
v 3 6 9
v -3 6 8
v -2 6 8
v 2 6 8
v 3 6 8
v -3 6 7
v -2 6 7
v -1 6 7
v 1 6 7
v 2 6 7
v 3 6 7
v -3 6 5
v -2 6 5
v -1 6 5
v 1 6 5
v 2 6 5
v 3 6 5
v -2 6 -5
v -1 6 -5
v 1 6 -5
v 2 6 -5
v -4 6 -7
v -3 6 -7
v -1 6 -7
v 1 6 -7
v 3 6 -7
v 4 6 -7
v -5 6 -9
v -4 6 -9
v -3 6 -9
v -1 6 -9
v 1 6 -9
v 3 6 -9
v 4 6 -9
v 5 6 -9
v -6 6 -10
v -5 6 -10
v -4 6 -10
v -1 6 -10
v 1 6 -10
v 4 6 -10
v 5 6 -10
v 6 6 -10
v -5 6 -11
v -4 6 -11
v 4 6 -11
v 5 6 -11
v -6 6 -12
v -1 6 -12
v 1 6 -12
v 6 6 -12
v -2 7 9
v -1 7 9
v 1 7 9
v 2 7 9
v -3 7 8
v -2 7 8
v -1 7 8
v 1 7 8
v 2 7 8
v 3 7 8
v -3 7 7
v -2 7 7
v -1 7 7
v 1 7 7
v 2 7 7
v 3 7 7
v -4 7 4
v -3 7 4
v 3 7 4
v 4 7 4
v -4 7 -4
v -3 7 -4
v 3 7 -4
v 4 7 -4
v -2 7 -7
v -1 7 -7
v 1 7 -7
v 2 7 -7
v -2 7 -8
v -1 7 -8
v 1 7 -8
v 2 7 -8
v -5 7 -10
v -4 7 -10
v 4 7 -10
v 5 7 -10
v -5 7 -11
v -4 7 -11
v 4 7 -11
v 5 7 -11
v -1 8 8
v 1 8 8
v -1 8 7
v 1 8 7
v -2 8 -8
v -1 8 -8
v 1 8 -8
v 2 8 -8
v -2 8 -9
v -1 8 -9
v 1 8 -9
v 2 8 -9
v -2 9 9
v 2 9 9
v -2 9 8
v 2 9 8
v -2 5 -9
v -1 5 -9
v 1 5 -9
v 2 5 -9
v -3 5 -10
v -2 5 -10
v 2 5 -10
v 3 5 -10
v -3 5 -12
v 3 5 -12
v -3 5 -13
v 3 5 -13
v -1 6 12
v 1 6 12
v -1 6 9
v 1 6 9
v -1 6 -8
v 1 6 -8
v -1 6 -9
v 1 6 -9
v -1 7 8
v 1 7 8
v -1 7 7
v 1 7 7
v -1 7 -9
v 1 7 -9
v -1 7 -10
v 1 7 -10
v -3 8 9
v 3 8 9
v -3 8 8
v 3 8 8
v -4 8 4
v -3 8 4
v 3 8 4
v 4 8 4
v -4 8 -4
v -3 8 -4
v 3 8 -4
v 4 8 -4
v -3 8 -5
v 3 8 -5
v -4 8 -7
v -3 8 -7
v -2 8 -7
v 2 8 -7
v 3 8 -7
v 4 8 -7
v -5 8 -9
v -4 8 -9
v -3 8 -9
v 3 8 -9
v 4 8 -9
v 5 8 -9
v -5 8 -10
v -3 8 -10
v 3 8 -10
v 5 8 -10
v -3 9 8
v -2 9 8
v 2 9 8
v 3 9 8
v -3 9 5
v -2 9 5
v -1 9 5
v 1 9 5
v 2 9 5
v 3 9 5
v -3 9 -5
v 3 9 -5
v -2 9 -7
v 2 9 -7
v -1 9 -8
v 1 9 -8
v -3 9 -9
v -2 9 -9
v 2 9 -9
v 3 9 -9
v -6 9 -10
v -3 9 -10
v 3 9 -10
v 6 9 -10
v -6 9 -11
v -1 9 -11
v 1 9 -11
v 6 9 -11
v -2 10 9
v 2 10 9
v -1 10 8
v 1 10 8
v -2 10 5
v -1 10 5
v 1 10 5
v 2 10 5
v -6 10 -11
v -1 10 -11
v 1 10 -11
v 6 10 -11
v -6 10 -12
v -1 10 -12
v 1 10 -12
v 6 10 -12

# faces
f 3/4/1 2/4/1 1/4/1
f 4/4/1 2/4/1 3/4/1
f 5/4/1 2/4/1 4/4/1
f 6/5/1 4/5/1 3/5/1
f 7/2/1 5/2/1 4/2/1
f 7/5/1 4/5/1 6/5/1
f 8/2/1 5/2/1 7/2/1
f 9/4/1 8/4/1 7/4/1
f 10/4/1 8/4/1 9/4/1
f 13/4/1 12/4/1 11/4/1
f 14/4/1 12/4/1 13/4/1
f 15/5/1 14/5/1 13/5/1
f 16/5/1 14/5/1 15/5/1
f 23/4/1 18/4/1 17/4/1
f 24/4/1 18/4/1 23/4/1
f 25/4/1 20/4/1 19/4/1
f 26/4/1 20/4/1 25/4/1
f 27/5/1 22/5/1 21/5/1
f 28/5/1 22/5/1 27/5/1
f 29/5/1 24/5/1 23/5/1
f 30/5/1 24/5/1 29/5/1
f 34/5/1 32/5/1 31/5/1
f 35/2/1 33/2/1 32/2/1
f 35/5/1 32/5/1 34/5/1
f 36/2/1 33/2/1 35/2/1
f 42/1/1 38/1/1 37/1/1
f 43/1/1 38/1/1 42/1/1
f 44/1/1 40/1/1 39/1/1
f 45/4/1 41/4/1 40/4/1
f 45/1/1 40/1/1 44/1/1
f 46/4/1 41/4/1 45/4/1
f 47/4/1 41/4/1 46/4/1
f 48/4/1 41/4/1 47/4/1
f 49/4/1 41/4/1 48/4/1
f 50/4/1 44/4/1 43/4/1
f 50/4/1 43/4/1 42/4/1
f 50/4/1 45/4/1 44/4/1
f 50/4/1 46/4/1 45/4/1
f 51/4/1 46/4/1 50/4/1
f 52/4/1 46/4/1 51/4/1
f 53/4/1 46/4/1 52/4/1
f 54/4/1 48/4/1 47/4/1
f 55/5/1 49/5/1 48/5/1
f 55/4/1 48/4/1 54/4/1
f 56/5/1 49/5/1 55/5/1
f 59/1/1 52/1/1 51/1/1
f 60/4/1 54/4/1 53/4/1
f 60/1/1 52/1/1 59/1/1
f 60/4/1 53/4/1 52/4/1
f 60/4/1 55/4/1 54/4/1
f 61/4/1 55/4/1 60/4/1
f 62/5/1 58/5/1 57/5/1
f 63/5/1 58/5/1 62/5/1
f 68/5/1 65/5/1 64/5/1
f 69/5/1 65/5/1 68/5/1
f 70/5/1 67/5/1 66/5/1
f 71/5/1 67/5/1 70/5/1
f 74/4/1 73/4/1 72/4/1
f 75/4/1 73/4/1 74/4/1
f 80/5/1 75/5/1 74/5/1
f 80/5/1 76/5/1 75/5/1
f 81/5/1 76/5/1 80/5/1
f 82/1/1 79/1/1 78/1/1
f 82/1/1 78/1/1 77/1/1
f 83/1/1 79/1/1 82/1/1
f 88/5/1 85/5/1 84/5/1
f 89/5/1 85/5/1 88/5/1
f 90/5/1 87/5/1 86/5/1
f 91/5/1 87/5/1 90/5/1
f 92/5/1 87/5/1 91/5/1
f 93/5/1 87/5/1 92/5/1
f 94/5/1 87/5/1 93/5/1
f 95/5/1 89/5/1 88/5/1
f 96/5/1 89/5/1 95/5/1
f 97/5/1 89/5/1 96/5/1
f 98/5/1 89/5/1 97/5/1
f 99/1/1 92/1/1 91/1/1
f 100/3/1 93/3/1 92/3/1
f 100/1/1 92/1/1 99/1/1
f 101/3/1 93/3/1 100/3/1
f 102/4/1 97/4/1 96/4/1
f 103/4/1 97/4/1 102/4/1
f 109/4/1 105/4/1 104/4/1
f 110/4/1 105/4/1 109/4/1
f 111/4/1 105/4/1 110/4/1
f 112/3/1 107/3/1 106/3/1
f 113/3/1 107/3/1 112/3/1
f 115/4/1 109/4/1 108/4/1
f 115/4/1 110/4/1 109/4/1
f 116/2/1 111/2/1 110/2/1
f 116/4/1 110/4/1 115/4/1
f 117/5/1 115/5/1 114/5/1
f 117/5/1 116/5/1 115/5/1
f 118/2/1 111/2/1 116/2/1
f 118/5/1 116/5/1 117/5/1
f 119/2/1 111/2/1 118/2/1
f 120/4/1 119/4/1 118/4/1
f 121/4/1 119/4/1 120/4/1
f 124/1/1 123/1/1 122/1/1
f 125/1/1 123/1/1 124/1/1
f 128/4/1 127/4/1 126/4/1
f 129/4/1 127/4/1 128/4/1
f 130/5/1 129/5/1 128/5/1
f 131/5/1 129/5/1 130/5/1
f 134/4/1 133/4/1 132/4/1
f 135/4/1 133/4/1 134/4/1
f 136/4/2 137/4/2 138/4/2
f 138/4/2 137/4/2 139/4/2
f 140/4/2 141/4/2 142/4/2
f 142/4/2 141/4/2 143/4/2
f 142/5/2 143/5/2 144/5/2
f 144/5/2 143/5/2 145/5/2
f 146/1/2 147/1/2 148/1/2
f 148/1/2 147/1/2 149/1/2
f 150/4/2 151/4/2 155/4/2
f 155/4/2 151/4/2 156/4/2
f 156/4/2 151/4/2 157/4/2
f 152/3/2 153/3/2 158/3/2
f 158/3/2 153/3/2 159/3/2
f 154/4/2 155/4/2 161/4/2
f 155/4/2 156/4/2 161/4/2
f 156/2/2 157/2/2 162/2/2
f 161/4/2 156/4/2 162/4/2
f 160/5/2 161/5/2 163/5/2
f 161/5/2 162/5/2 163/5/2
f 162/2/2 157/2/2 164/2/2
f 163/5/2 162/5/2 164/5/2
f 164/2/2 157/2/2 165/2/2
f 164/4/2 165/4/2 166/4/2
f 166/4/2 165/4/2 167/4/2
f 168/5/2 169/5/2 172/5/2
f 172/5/2 169/5/2 173/5/2
f 170/5/2 171/5/2 174/5/2
f 174/5/2 171/5/2 175/5/2
f 175/5/2 171/5/2 176/5/2
f 176/5/2 171/5/2 177/5/2
f 177/5/2 171/5/2 178/5/2
f 172/5/2 173/5/2 179/5/2
f 179/5/2 173/5/2 180/5/2
f 180/5/2 173/5/2 181/5/2
f 181/5/2 173/5/2 182/5/2
f 175/1/2 176/1/2 183/1/2
f 176/3/2 177/3/2 184/3/2
f 183/1/2 176/1/2 184/1/2
f 184/3/2 177/3/2 185/3/2
f 180/4/2 181/4/2 186/4/2
f 186/4/2 181/4/2 187/4/2
f 188/5/2 189/5/2 192/5/2
f 192/5/2 189/5/2 193/5/2
f 190/5/2 191/5/2 194/5/2
f 194/5/2 191/5/2 195/5/2
f 196/4/2 197/4/2 198/4/2
f 198/4/2 197/4/2 199/4/2
f 198/5/2 199/5/2 204/5/2
f 199/5/2 200/5/2 204/5/2
f 204/5/2 200/5/2 205/5/2
f 202/1/2 203/1/2 206/1/2
f 201/1/2 202/1/2 206/1/2
f 206/1/2 203/1/2 207/1/2
f 208/5/2 209/5/2 211/5/2
f 209/2/2 210/2/2 212/2/2
f 211/5/2 209/5/2 212/5/2
f 212/2/2 210/2/2 213/2/2
f 214/1/2 215/1/2 219/1/2
f 219/1/2 215/1/2 220/1/2
f 216/1/2 217/1/2 221/1/2
f 217/4/2 218/4/2 222/4/2
f 221/1/2 217/1/2 222/1/2
f 222/4/2 218/4/2 223/4/2
f 223/4/2 218/4/2 224/4/2
f 224/4/2 218/4/2 225/4/2
f 225/4/2 218/4/2 226/4/2
f 220/4/2 221/4/2 227/4/2
f 219/4/2 220/4/2 227/4/2
f 221/4/2 222/4/2 227/4/2
f 222/4/2 223/4/2 227/4/2
f 227/4/2 223/4/2 228/4/2
f 228/4/2 223/4/2 229/4/2
f 229/4/2 223/4/2 230/4/2
f 224/4/2 225/4/2 231/4/2
f 225/5/2 226/5/2 232/5/2
f 231/4/2 225/4/2 232/4/2
f 232/5/2 226/5/2 233/5/2
f 228/1/2 229/1/2 236/1/2
f 230/4/2 231/4/2 237/4/2
f 236/1/2 229/1/2 237/1/2
f 229/4/2 230/4/2 237/4/2
f 231/4/2 232/4/2 237/4/2
f 237/4/2 232/4/2 238/4/2
f 234/5/2 235/5/2 239/5/2
f 239/5/2 235/5/2 240/5/2
f 241/4/2 242/4/2 247/4/2
f 247/4/2 242/4/2 248/4/2
f 243/4/2 244/4/2 249/4/2
f 249/4/2 244/4/2 250/4/2
f 245/5/2 246/5/2 251/5/2
f 251/5/2 246/5/2 252/5/2
f 247/5/2 248/5/2 253/5/2
f 253/5/2 248/5/2 254/5/2
f 255/4/2 256/4/2 257/4/2
f 257/4/2 256/4/2 258/4/2
f 257/5/2 258/5/2 259/5/2
f 259/5/2 258/5/2 260/5/2
f 261/4/2 262/4/2 263/4/2
f 263/4/2 262/4/2 264/4/2
f 264/4/2 262/4/2 265/4/2
f 263/5/2 264/5/2 266/5/2
f 264/2/2 265/2/2 267/2/2
f 266/5/2 264/5/2 267/5/2
f 267/2/2 265/2/2 268/2/2
f 267/4/2 268/4/2 269/4/2
f 269/4/2 268/4/2 270/4/2
f 273/5/3 272/5/3 271/5/3
f 274/5/3 272/5/3 273/5/3
f 278/1/3 276/1/3 275/1/3
f 279/4/3 277/4/3 276/4/3
f 279/1/3 276/1/3 278/1/3
f 283/4/3 277/4/3 279/4/3
f 284/1/3 283/1/3 282/1/3
f 285/4/3 277/4/3 283/4/3
f 285/1/3 283/1/3 284/1/3
f 287/4/3 277/4/3 285/4/3
f 288/1/3 281/1/3 280/1/3
f 289/1/3 281/1/3 288/1/3
f 290/1/3 287/1/3 286/1/3
f 291/4/3 277/4/3 287/4/3
f 291/1/3 287/1/3 290/1/3
f 292/4/3 277/4/3 291/4/3
f 295/1/3 294/1/3 293/1/3
f 296/1/3 295/1/3 293/1/3
f 297/1/3 296/1/3 293/1/3
f 298/1/3 296/1/3 297/1/3
f 301/1/3 300/1/3 299/1/3
f 302/1/3 300/1/3 301/1/3
f 303/3/3 302/3/3 301/3/3
f 304/3/3 302/3/3 303/3/3
f 307/3/3 305/3/3 304/3/3
f 308/3/3 305/3/3 307/3/3
f 309/3/3 307/3/3 306/3/3
f 310/3/3 307/3/3 309/3/3
f 311/1/3 310/1/3 309/1/3
f 312/1/3 310/1/3 311/1/3
f 315/5/3 314/5/3 313/5/3
f 316/5/3 314/5/3 315/5/3
f 319/5/3 318/5/3 317/5/3
f 320/5/3 318/5/3 319/5/3
f 323/5/3 322/5/3 321/5/3
f 324/5/3 322/5/3 323/5/3
f 327/5/3 326/5/3 325/5/3
f 328/5/3 326/5/3 327/5/3
f 331/5/3 330/5/3 329/5/3
f 332/5/3 330/5/3 331/5/3
f 336/4/3 334/4/3 333/4/3
f 337/5/3 335/5/3 334/5/3
f 337/4/3 334/4/3 336/4/3
f 338/5/3 335/5/3 337/5/3
f 341/5/3 340/5/3 339/5/3
f 342/5/3 340/5/3 341/5/3
f 346/4/3 344/4/3 343/4/3
f 347/5/3 345/5/3 344/5/3
f 347/4/3 344/4/3 346/4/3
f 348/5/3 345/5/3 347/5/3
f 352/4/3 350/4/3 349/4/3
f 353/5/3 351/5/3 350/5/3
f 353/4/3 350/4/3 352/4/3
f 354/5/3 351/5/3 353/5/3
f 361/3/3 357/3/3 356/3/3
f 361/4/3 356/4/3 355/4/3
f 362/5/3 358/5/3 357/5/3
f 362/3/3 357/3/3 361/3/3
f 363/5/3 358/5/3 362/5/3
f 364/5/3 360/5/3 359/5/3
f 365/5/3 360/5/3 364/5/3
f 366/4/3 361/4/3 355/4/3
f 366/4/3 362/4/3 361/4/3
f 367/4/3 362/4/3 366/4/3
f 368/4/3 362/4/3 367/4/3
f 371/4/3 367/4/3 366/4/3
f 372/4/3 367/4/3 371/4/3
f 374/5/3 370/5/3 369/5/3
f 375/5/3 370/5/3 374/5/3
f 376/4/3 373/4/3 372/4/3
f 376/4/3 372/4/3 371/4/3
f 377/4/3 373/4/3 376/4/3
f 379/4/3 376/4/3 371/4/3
f 380/3/3 377/3/3 376/3/3
f 380/4/3 376/4/3 379/4/3
f 381/5/3 378/5/3 377/5/3
f 381/3/3 377/3/3 380/3/3
f 382/5/3 378/5/3 381/5/3
f 386/4/3 384/4/3 383/4/3
f 387/5/3 385/5/3 384/5/3
f 387/4/3 384/4/3 386/4/3
f 388/5/3 385/5/3 387/5/3
f 392/4/3 390/4/3 389/4/3
f 393/5/3 391/5/3 390/5/3
f 393/4/3 390/4/3 392/4/3
f 394/5/3 391/5/3 393/5/3
f 397/5/3 391/5/3 394/5/3
f 398/5/3 391/5/3 397/5/3
f 399/5/3 396/5/3 395/5/3
f 400/5/3 396/5/3 399/5/3
f 403/5/3 402/5/3 401/5/3
f 404/5/3 402/5/3 403/5/3
f 409/5/3 406/5/3 405/5/3
f 410/4/3 408/4/3 407/4/3
f 411/5/3 409/5/3 408/5/3
f 411/4/3 408/4/3 410/4/3
f 412/5/3 406/5/3 409/5/3
f 412/5/3 409/5/3 411/5/3
f 417/4/3 416/4/3 415/4/3
f 418/4/3 416/4/3 417/4/3
f 419/4/3 414/4/3 413/4/3
f 420/4/3 414/4/3 419/4/3
f 425/4/3 424/4/3 423/4/3
f 426/4/3 424/4/3 425/4/3
f 427/4/3 422/4/3 421/4/3
f 428/4/3 422/4/3 427/4/3
f 429/1/4 430/1/4 431/1/4
f 431/1/4 430/1/4 432/1/4
f 433/4/4 434/4/4 435/4/4
f 435/4/4 434/4/4 436/4/4
f 437/1/4 438/1/4 439/1/4
f 439/1/4 438/1/4 440/1/4
f 441/1/4 442/1/4 443/1/4
f 443/1/4 442/1/4 444/1/4
f 443/4/4 444/4/4 445/4/4
f 445/4/4 444/4/4 446/4/4
f 445/1/4 446/1/4 447/1/4
f 447/1/4 446/1/4 448/1/4
f 449/5/4 450/5/4 451/5/4
f 451/5/4 450/5/4 452/5/4
f 453/5/4 454/5/4 455/5/4
f 455/5/4 454/5/4 456/5/4
f 459/5/4 460/5/4 461/5/4
f 461/5/4 460/5/4 462/5/4
f 463/5/4 464/5/4 465/5/4
f 465/5/4 464/5/4 466/5/4
f 457/4/4 458/4/4 467/4/4
f 467/4/4 458/4/4 468/4/4
f 469/4/4 470/4/4 472/4/4
f 470/5/4 471/5/4 472/5/4
f 472/5/4 471/5/4 473/5/4
f 469/4/4 472/4/4 474/4/4
f 474/4/4 472/4/4 475/4/4
f 476/4/4 477/4/4 478/4/4
f 476/4/4 478/4/4 480/4/4
f 478/5/4 479/5/4 481/5/4
f 480/4/4 478/4/4 481/4/4
f 481/5/4 479/5/4 482/5/4
f 483/4/4 484/4/4 486/4/4
f 486/4/4 484/4/4 487/4/4
f 485/4/4 486/4/4 489/4/4
f 486/4/4 487/4/4 489/4/4
f 489/4/4 487/4/4 490/4/4
f 487/5/4 488/5/4 491/5/4
f 490/4/4 487/4/4 491/4/4
f 491/5/4 488/5/4 492/5/4
f 490/4/4 491/4/4 493/4/4
f 493/4/4 491/4/4 494/4/4
f 495/5/4 496/5/4 497/5/4
f 497/5/4 496/5/4 498/5/4
f 499/4/4 500/4/4 501/4/4
f 501/4/4 500/4/4 502/4/4
f 503/4/4 504/4/4 505/4/4
f 505/4/4 504/4/4 506/4/4
f 507/4/4 508/4/4 509/4/4
f 509/4/4 508/4/4 510/4/4
f 511/4/4 512/4/4 515/4/4
f 512/2/4 513/2/4 516/2/4
f 515/4/4 512/4/4 516/4/4
f 513/4/4 514/4/4 517/4/4
f 516/2/4 513/2/4 517/2/4
f 517/4/4 514/4/4 518/4/4
f 519/4/4 520/4/4 523/4/4
f 520/2/4 521/2/4 524/2/4
f 523/4/4 520/4/4 524/4/4
f 521/4/4 522/4/4 525/4/4
f 524/2/4 521/2/4 525/2/4
f 525/4/4 522/4/4 526/4/4
f 527/2/4 528/2/4 529/2/4
f 529/2/4 528/2/4 530/2/4
f 534/5/5 532/5/5 531/5/5
f 535/5/5 532/5/5 534/5/5
f 538/5/5 534/5/5 533/5/5
f 538/5/5 536/5/5 535/5/5
f 538/5/5 535/5/5 534/5/5
f 539/5/5 536/5/5 538/5/5
f 541/5/5 538/5/5 537/5/5
f 541/5/5 540/5/5 539/5/5
f 541/5/5 539/5/5 538/5/5
f 542/5/5 540/5/5 541/5/5
f 543/2/5 542/2/5 541/2/5
f 544/2/5 542/2/5 543/2/5
f 548/5/5 546/5/5 545/5/5
f 549/5/5 546/5/5 548/5/5
f 551/5/5 548/5/5 547/5/5
f 551/5/5 550/5/5 549/5/5
f 551/5/5 549/5/5 548/5/5
f 552/5/5 550/5/5 551/5/5
f 553/5/5 550/5/5 552/5/5
f 554/5/5 550/5/5 553/5/5
f 559/1/5 556/1/5 555/1/5
f 560/1/5 556/1/5 559/1/5
f 561/1/5 558/1/5 557/1/5
f 562/1/5 558/1/5 561/1/5
f 569/1/5 564/1/5 563/1/5
f 570/3/5 565/3/5 564/3/5
f 570/1/5 564/1/5 569/1/5
f 571/3/5 565/3/5 570/3/5
f 572/3/5 567/3/5 566/3/5
f 573/1/5 568/1/5 567/1/5
f 573/3/5 567/3/5 572/3/5
f 574/1/5 568/1/5 573/1/5
f 575/4/5 570/4/5 569/4/5
f 578/4/5 574/4/5 573/4/5
f 580/4/5 576/4/5 575/4/5
f 580/4/5 575/4/5 569/4/5
f 581/4/5 576/4/5 580/4/5
f 582/4/5 578/4/5 577/4/5
f 583/4/5 574/4/5 578/4/5
f 583/4/5 578/4/5 582/4/5
f 586/4/5 580/4/5 579/4/5
f 587/4/5 580/4/5 586/4/5
f 590/4/5 584/4/5 583/4/5
f 591/4/5 584/4/5 590/4/5
f 594/4/5 589/4/5 588/4/5
f 594/4/5 592/4/5 591/4/5
f 594/4/5 591/4/5 590/4/5
f 594/4/5 590/4/5 589/4/5
f 594/4/5 586/4/5 585/4/5
f 594/4/5 588/4/5 587/4/5
f 594/4/5 587/4/5 586/4/5
f 595/4/5 592/4/5 594/4/5
f 596/4/5 592/4/5 595/4/5
f 597/4/5 592/4/5 596/4/5
f 598/4/5 592/4/5 597/4/5
f 599/4/5 592/4/5 598/4/5
f 601/4/5 594/4/5 593/4/5
f 602/4/5 596/4/5 595/4/5
f 603/4/5 598/4/5 597/4/5
f 604/4/5 600/4/5 599/4/5
f 605/4/5 602/4/5 601/4/5
f 605/4/5 601/4/5 593/4/5
f 606/4/5 596/4/5 602/4/5
f 606/4/5 602/4/5 605/4/5
f 607/4/5 603/4/5 597/4/5
f 607/4/5 604/4/5 603/4/5
f 608/4/5 600/4/5 604/4/5
f 608/4/5 604/4/5 607/4/5
f 614/4/5 610/4/5 609/4/5
f 615/4/5 610/4/5 614/4/5
f 616/4/5 612/4/5 611/4/5
f 617/4/5 612/4/5 616/4/5
f 619/4/5 614/4/5 613/4/5
f 620/3/5 615/3/5 614/3/5
f 620/4/5 614/4/5 619/4/5
f 621/3/5 615/3/5 620/3/5
f 622/3/5 617/3/5 616/3/5
f 623/4/5 618/4/5 617/4/5
f 623/3/5 617/3/5 622/3/5
f 624/4/5 618/4/5 623/4/5
f 629/5/5 626/5/5 625/5/5
f 630/5/5 626/5/5 629/5/5
f 631/5/5 628/5/5 627/5/5
f 632/5/5 628/5/5 631/5/5
f 637/4/5 634/4/5 633/4/5
f 638/4/5 634/4/5 637/4/5
f 639/4/5 636/4/5 635/4/5
f 640/4/5 636/4/5 639/4/5
f 645/3/5 642/3/5 641/3/5
f 646/3/5 642/3/5 645/3/5
f 647/3/5 644/3/5 643/3/5
f 648/3/5 644/3/5 647/3/5
f 651/1/5 650/1/5 649/1/5
f 652/1/5 650/1/5 651/1/5
f 657/5/5 654/5/5 653/5/5
f 658/5/5 654/5/5 657/5/5
f 659/5/5 656/5/5 655/5/5
f 660/5/5 656/5/5 659/5/5
f 663/1/5 662/1/5 661/1/5
f 664/1/5 662/1/5 663/1/5
f 665/5/6 666/5/6 670/5/6
f 667/5/6 668/5/6 670/5/6
f 666/5/6 667/5/6 670/5/6
f 670/5/6 668/5/6 671/5/6
f 669/5/6 670/5/6 673/5/6
f 671/5/6 672/5/6 673/5/6
f 670/5/6 671/5/6 673/5/6
f 673/5/6 672/5/6 674/5/6
f 673/2/6 674/2/6 675/2/6
f 675/2/6 674/2/6 676/2/6
f 677/5/6 678/5/6 679/5/6
f 679/5/6 678/5/6 680/5/6
f 681/5/6 682/5/6 683/5/6
f 683/5/6 682/5/6 684/5/6
f 685/3/6 686/3/6 687/3/6
f 687/3/6 686/3/6 688/3/6
f 689/4/6 690/4/6 691/4/6
f 691/4/6 690/4/6 692/4/6
f 693/4/6 694/4/6 695/4/6
f 695/4/6 694/4/6 696/4/6
f 697/5/6 698/5/6 701/5/6
f 701/5/6 698/5/6 702/5/6
f 699/5/6 700/5/6 703/5/6
f 703/5/6 700/5/6 704/5/6
f 705/5/6 706/5/6 708/5/6
f 708/5/6 706/5/6 709/5/6
f 709/5/6 706/5/6 710/5/6
f 710/5/6 706/5/6 711/5/6
f 707/5/6 708/5/6 714/5/6
f 714/5/6 708/5/6 715/5/6
f 711/5/6 712/5/6 716/5/6
f 716/5/6 712/5/6 717/5/6
f 714/5/6 715/5/6 719/5/6
f 713/5/6 714/5/6 719/5/6
f 719/5/6 715/5/6 720/5/6
f 716/5/6 717/5/6 721/5/6
f 717/5/6 718/5/6 721/5/6
f 721/5/6 718/5/6 722/5/6
f 723/1/6 724/1/6 727/1/6
f 727/1/6 724/1/6 728/1/6
f 725/1/6 726/1/6 731/1/6
f 731/1/6 726/1/6 732/1/6
f 729/4/6 730/4/6 733/4/6
f 727/4/6 728/4/6 733/4/6
f 731/4/6 732/4/6 733/4/6
f 730/4/6 731/4/6 733/4/6
f 728/4/6 729/4/6 733/4/6
f 733/4/6 732/4/6 734/4/6
f 735/5/6 736/5/6 737/5/6
f 737/5/6 736/5/6 738/5/6
f 735/5/6 737/5/6 740/5/6
f 738/5/6 736/5/6 741/5/6
f 739/5/6 740/5/6 744/5/6
f 741/5/6 742/5/6 745/5/6
f 743/5/6 744/5/6 747/5/6
f 744/5/6 740/5/6 748/5/6
f 747/5/6 744/5/6 748/5/6
f 740/5/6 737/5/6 748/5/6
f 741/5/6 745/5/6 749/5/6
f 745/5/6 746/5/6 749/5/6
f 738/5/6 741/5/6 749/5/6
f 749/5/6 746/5/6 750/5/6
f 751/1/6 752/1/6 753/1/6
f 753/1/6 752/1/6 754/1/6
f 751/1/6 753/1/6 755/1/6
f 753/4/6 754/4/6 756/4/6
f 755/1/6 753/1/6 756/1/6
f 754/1/6 752/1/6 757/1/6
f 756/4/6 754/4/6 757/4/6
f 757/1/6 752/1/6 758/1/6
f 759/4/6 760/4/6 763/4/6
f 763/4/6 760/4/6 764/4/6
f 761/4/6 762/4/6 765/4/6
f 765/4/6 762/4/6 766/4/6
